<?xml version="1.0" ?><svg height="24px" version="1.1" viewBox="0 0 24 24" width="24px" xmlns="http://www.w3.org/2000/svg" xmlns:sketch="http://www.bohemiancoding.com/sketch/ns" xmlns:xlink="http://www.w3.org/1999/xlink"><title/><desc/><defs/><g fill="none" fill-rule="evenodd" id="miu" stroke="none" stroke-width="1"><g id="Artboard-1" transform="translate(-251.000000, -659.000000)"><g id="slice" transform="translate(215.000000, 119.000000)"/><path d="M263,682 C269.075133,682 274,677.075133 274,671 C274,664.924867 269.075133,660 263,660 C256.924867,660 252,664.924867 252,671 C252,677.075133 256.924867,682 263,682 Z M267.052451,666.760121 C266.609168,666.256141 265.977531,665.935037 265.278489,665.923401 C263.93632,665.901061 262.848073,667.035205 262.848073,668.456476 C262.848073,668.658188 262.869574,668.854888 262.911035,669.043713 C260.891148,668.912696 259.100305,667.860883 257.901652,666.275398 C257.692449,666.655316 257.572566,667.099357 257.572566,667.575022 C257.572566,668.475496 258.001634,669.27466 258.653765,669.74652 C258.255378,669.728932 257.880625,669.608331 257.552961,669.410482 C257.552724,669.421296 257.552724,669.432113 257.552724,669.44312 C257.552724,670.700635 258.390484,671.755593 259.502305,672.001344 C259.298373,672.059131 259.083662,672.089373 258.86202,672.087903 C258.705414,672.086864 258.553132,672.069498 258.404758,672.038315 C258.714002,673.069605 259.611526,673.822148 260.675074,673.84703 C259.843296,674.537489 258.795385,674.948704 257.656674,674.946355 C257.460502,674.945951 257.267054,674.933274 257.076923,674.908887 C258.152495,675.646882 259.429984,676.076563 260.802479,676.076923 C265.272803,676.078096 267.717435,672.187821 267.717435,668.813482 C267.717435,668.702773 267.715006,668.592657 267.710386,668.483072 C268.185239,668.129244 268.597248,667.685623 268.923077,667.179047 C268.487257,667.375506 268.018801,667.505985 267.527245,667.560717 C268.028988,667.251921 268.414403,666.757702 268.595827,666.165045 C268.126186,666.449847 267.606081,666.654088 267.052451,666.760121 Z" fill="#000000" id="circle-social-twitter-glyph"/></g></g></svg>